<?xml version="1.0" encoding="UTF-8" standalone="no"?>
<svg
   version="1.0"
   width="300.000000pt"
   height="300.000000pt"
   viewBox="0 0 300.000000 300.000000"
   preserveAspectRatio="xMidYMid meet"
   id="svg105"
   sodipodi:docname="Male-Clickable.svg"
   inkscape:version="1.3.2 (091e20e, 2023-11-25)"
   xmlns:inkscape="http://www.inkscape.org/namespaces/inkscape"
   xmlns:sodipodi="http://sodipodi.sourceforge.net/DTD/sodipodi-0.dtd"
   xmlns="http://www.w3.org/2000/svg"
   xmlns:svg="http://www.w3.org/2000/svg">
  <defs
     id="defs105" />
  <sodipodi:namedview
     id="namedview105"
     pagecolor="#ffffff"
     bordercolor="#000000"
     borderopacity="0.25"
     inkscape:showpageshadow="2"
     inkscape:pageopacity="0.0"
     inkscape:pagecheckerboard="0"
     inkscape:deskcolor="#d1d1d1"
     inkscape:document-units="pt"
     inkscape:zoom="1.0901201"
     inkscape:cx="229.7912"
     inkscape:cy="189.88734"
     inkscape:window-width="1440"
     inkscape:window-height="805"
     inkscape:window-x="-60"
     inkscape:window-y="27"
     inkscape:window-maximized="0"
     inkscape:current-layer="svg105"
     showgrid="false" />
  <metadata
     id="metadata1">
Created by potrace 1.10, written by Peter Selinger 2001-2011
</metadata>
  <g
     transform="matrix(0.1,0,0,-0.1,0,300)"
     fill="#4f4f4f"
     stroke="none"
     id="g105"
     style="display:inline"
     inkscape:label="g105">
    <path
       d="m 703,2789 c -42,-12 -63,-44 -63,-96 0,-56 15,-55 29,2 l 11,45 h 70 c 78,0 85,-6 99,-83 l 8,-42 8,38 c 10,52 -2,104 -28,122 -30,19 -95,26 -134,14 z"
       id="path1"
       inkscape:label="M-Front-Head" />
    <path
       d="m 2193,2789 c -42,-12 -63,-44 -63,-95 0,-32 7,-48 30,-72 17,-18 30,-36 30,-42 0,-5 21,-10 47,-10 42,0 50,4 85,42 31,34 38,50 38,83 0,52 -21,82 -68,95 -43,12 -56,11 -99,-1 z"
       id="path2"
       inkscape:label="M-Back-Head" />
    <g
       id="M-Trap"
       style="display:inline">
      <path
         d="m 2197,2544 c -4,-4 -7,-20 -7,-35 0,-43 -17,-77 -46,-92 -27,-14 -27,-15 -6,-21 11,-4 37,-4 57,0 l 36,6 -3,71 c -3,64 -13,88 -31,71 z"
         id="path3"
         inkscape:label="M-Back-Left-Trap" />
      <path
         d="m 2275,2360 c -22,-24 -29,-113 -18,-239 l 8,-95 36,70 c 20,38 47,102 60,141 l 42,89 c -11,-4 -13,-2 -9,9 3,8 9,22 12,30 10,25 -107,21 -131,-5 z"
         id="path13"
         inkscape:label="M-Back-Right-Trap-2"
         sodipodi:nodetypes="ccccccccc"
         style="display:inline" />
      <path
         d="m 2084,2365 41,-117 c 10,-35 37,-99 59,-143 l 41,-80 8,100 c 10,124 2,212 -20,237 -22,24 -139,27 -129,3 z"
         id="path12"
         inkscape:label="M-Back-Left-Trap-2"
         style="display:inline"
         sodipodi:nodetypes="ccccccc" />
      <path
         d="m 2267,2544 c -4,-4 -7,-38 -7,-75 v -68 l 34,-6 c 19,-4 44,-4 56,0 21,7 21,8 -8,26 -30,17 -35,31 -45,108 -2,16 -20,25 -30,15 z"
         id="path4"
         inkscape:label="M-Back-Right-Trap" />
      <path
         d="m 626,2392 -39,-27 29,-6 c 42,-8 54,-1 54,32 0,16 -1,29 -2,28 -2,-1 -20,-13 -42,-27 z"
         id="path8"
         inkscape:label="M-Front-Left-Trap" />
      <path
         d="m 840,2391 c 0,-30 2,-31 42,-31 23,0 39,1 37,3 -2,2 -21,15 -41,30 l -38,28 z"
         id="path11"
         inkscape:label="M-Front-Right-Trap" />
    </g>
    <g
       id="M-Neck"
       style="display:inline">
      <path
         d="m 680,2479 c 0,-35 52,-139 57,-116 6,22 -26,114 -44,129 -10,8 -13,5 -13,-13 z"
         id="path5"
         sodipodi:insensitive="true"
         inkscape:label="M-Front-Neck" />
      <path
         d="m 812,2488 c -18,-23 -42,-90 -42,-117 1,-25 1,-25 16,-6 16,22 49,124 41,131 -2,2 -9,-1 -15,-8 z"
         id="path6"
         sodipodi:insensitive="true"
         inkscape:label="M-Front-Neck" />
      <path
         d="m 729,2450 c 25,-56 28,-57 45,-15 22,52 21,55 -24,55 h -39 z"
         id="path7"
         sodipodi:insensitive="true"
         inkscape:label="M-Front-Neck" />
      <path
         d="m 680,2399 c 0,-15 7,-33 16,-40 15,-12 16,-11 9,11 -14,46 -24,58 -25,29 z"
         id="path9"
         inkscape:label="M-Front-Neck"
         sodipodi:insensitive="true" />
      <path
         d="m 813,2397 c -18,-39 -16,-55 3,-35 9,8 14,26 12,39 -3,23 -3,23 -15,-4 z"
         id="path10"
         sodipodi:insensitive="true"
         inkscape:label="M-Front-Neck" />
    </g>
    <g
       id="M-Delt"
       style="display:inline">
      <path
         d="m 446,2337 c -19,-18 -38,-45 -41,-59 -8,-32 17,-84 45,-93 26,-8 59,29 60,67 0,41 10,57 43,75 29,15 30,16 12,29 -34,25 -80,17 -119,-19 z"
         id="path14"
         inkscape:label="M-Front-Left-Delt" />
      <path
         d="m 948,2359 c -25,-14 -22,-23 12,-36 23,-9 30,-17 30,-38 0,-33 28,-95 47,-102 17,-7 52,24 64,55 27,71 -86,161 -153,121 z"
         id="path15"
         inkscape:label="M-Front-Right-Delt" />
      <path
         d="m 1948,2344 c -15,-8 -35,-28 -43,-44 -17,-34 -20,-120 -4,-120 22,0 69,42 69,61 0,29 26,75 47,84 17,6 17,7 -1,21 -24,17 -34,17 -68,-2 z"
         id="path16"
         inkscape:label="M-Back-Left-Delt" />
      <path
         d="m 2474,2346 c -18,-14 -18,-15 -1,-21 21,-9 47,-55 47,-84 0,-19 47,-61 69,-61 16,0 13,86 -4,120 -14,27 -60,60 -83,60 -4,0 -17,-6 -28,-14 z"
         id="path17"
         inkscape:label="M-Back-Right-Delt" />
    </g>
    <g
       id="M-Pec"
       style="display:inline">
      <path
         d="m 578,2324 c -35,-19 -48,-43 -48,-92 0,-89 39,-132 120,-132 30,0 47,6 65,25 22,21 25,33 25,97 0,99 -13,118 -83,118 -29,-1 -64,-7 -79,-16 z"
         id="path18"
         inkscape:label="M-Front-Left-Pec" />
      <path
         d="m 786,2318 c -11,-15 -16,-46 -16,-96 0,-64 3,-76 25,-97 57,-58 168,-16 182,67 15,98 -27,148 -124,148 -42,0 -55,-4 -67,-22 z"
         id="path19"
         inkscape:label="M-Front-Right-Pec" />
    </g>
    <g
       id="M-ab"
       style="display:inline">
      <path
         d="m 679,2090 c -20,-11 -39,-27 -43,-36 -7,-19 3,-84 13,-84 4,0 29,14 55,30 40,26 47,35 42,53 -3,12 -6,30 -6,40 0,22 -16,21 -61,-3 z"
         id="path28"
         inkscape:label="M-Front-Ab" />
      <path
         d="m 766,2088 c -12,-46 -6,-59 41,-88 26,-17 50,-30 54,-30 9,0 17,59 11,82 -4,17 -68,58 -90,58 -6,0 -12,-10 -16,-22 z"
         id="path29"
         inkscape:label="M-Front-Ab" />
      <path
         d="m 767,1993 c -4,-3 -7,-26 -7,-49 0,-32 4,-44 18,-47 16,-4 16,-5 -1,-6 -15,-1 -18,-8 -15,-43 l 3,-43 47,-3 c 44,-3 48,-1 54,22 8,35 -1,56 -26,56 -12,0 -18,5 -15,10 3,6 15,10 25,10 34,0 9,52 -37,77 -22,13 -43,20 -46,16 z"
         id="path39"
         inkscape:label="M-Front-Ab" />
      <path
         d="m 689,1976 c -50,-34 -66,-76 -30,-76 29,0 35,-18 9,-22 -19,-2 -23,-9 -23,-38 v -35 h 50 50 l 3,42 c 2,33 -1,42 -15,46 -17,5 -17,5 0,6 15,1 18,9 15,48 -2,25 -8,48 -13,50 -6,2 -26,-8 -46,-21 z"
         id="path38"
         inkscape:label="M-Front-Ab" />
      <path
         d="m 646,1753 c 14,-103 37,-185 59,-211 38,-44 46,-22 43,119 l -3,124 -52,3 -52,3 z"
         id="path53"
         inkscape:label="M-Front-Ab" />
      <path
         d="m 767,1783 c -4,-3 -7,-64 -7,-135 0,-101 3,-128 13,-128 38,0 73,85 84,202 l 6,68 h -45 c -25,0 -48,-3 -51,-7 z"
         id="path54"
         inkscape:label="M-Front-Ab" />
    </g>
    <g
       id="M-Lower-Back"
       style="display:inline">
      <path
         d="m 2202,1972 c -20,-36 -82,-200 -82,-217 0,-22 91,-79 102,-62 9,15 9,195 -1,257 -6,43 -7,44 -19,22 z"
         id="path40"
         inkscape:label="M-Back-Lower-Back" />
      <path
         d="m 2266,1943 c -9,-65 -7,-236 2,-250 11,-17 102,40 102,63 0,20 -79,222 -89,229 -5,2 -11,-16 -15,-42 z"
         id="path41"
         inkscape:label="M-Back-Lower-Back" />
    </g>
    <g
       id="M-Forearm"
       style="display:inline">
      <path
         d="m 326,1908 c -14,-29 -26,-63 -26,-76 0,-13 -9,-69 -20,-124 -23,-111 -22,-138 3,-93 16,28 17,29 11,4 -4,-18 -1,-26 9,-26 9,0 29,32 50,79 40,87 41,104 3,31 -14,-27 -25,-44 -26,-40 -1,18 52,107 60,102 11,-7 50,77 49,103 0,14 -2,13 -9,-3 -7,-17 -9,-15 -9,13 -1,39 -18,42 -27,5 -9,-40 -87,-234 -91,-229 -2,2 12,44 32,92 41,103 58,214 32,214 -8,0 -27,-23 -41,-52 z m 91,-85 c -4,-3 -7,0 -7,7 0,7 3,10 7,7 3,-4 3,-10 0,-14 z m -16,-40 c -12,-20 -14,-14 -5,12 4,9 9,14 11,11 3,-2 0,-13 -6,-23 z m -80,-160 c -12,-20 -14,-14 -5,12 4,9 9,14 11,11 3,-2 0,-13 -6,-23 z"
         id="path43"
         inkscape:label="M-Front-Left-Forearm" />
      <path
         d="m 1130,1913 c 1,-27 9,-73 20,-103 10,-30 17,-56 16,-57 -5,-5 -35,70 -46,115 -13,50 -30,55 -31,10 0,-28 -2,-30 -9,-13 -9,20 -9,20 -9,0 0,-11 4,-27 9,-35 7,-11 10,-12 10,-2 0,8 18,-20 40,-62 52,-97 52,-112 0,-21 -55,97 -50,78 11,-41 28,-54 47,-90 44,-79 -16,46 -16,49 0,22 9,-16 14,-34 12,-41 -3,-7 1,-13 9,-13 16,0 14,9 -17,91 -10,28 -17,51 -15,53 2,2 16,-28 31,-66 15,-39 31,-73 36,-77 12,-7 11,3 -6,84 -8,39 -19,101 -25,138 -19,121 -80,195 -80,97 z"
         id="path44"
         inkscape:label="M-Front-Right-Forearm" />
      <path
         d="m 2654,1855 c -5,-16 -9,-56 -9,-89 l 1,-58 -24,71 c -15,45 -29,71 -39,71 -20,0 -12,-23 49,-140 27,-52 47,-87 44,-77 -4,9 -8,25 -12,35 -3,9 8,-8 25,-38 29,-52 30,-53 25,-20 l -5,35 21,-35 c 14,-24 19,-28 14,-12 -12,46 -44,207 -45,232 -1,17 -4,12 -9,-15 l -7,-40 -2,35 c -1,19 -6,44 -11,55 -7,18 -9,17 -16,-10 z m 43,-137 c -3,-7 -5,-2 -5,12 0,14 2,19 5,13 2,-7 2,-19 0,-25 z m 10,-60 c -3,-7 -5,-2 -5,12 0,14 2,19 5,13 2,-7 2,-19 0,-25 z"
         id="path48"
         inkscape:label="M-Back-Right-Forearm"
         style="display:inline" />
      <path
         d="m 1816,1865 c -3,-9 -7,-33 -7,-53 l -2,-37 -6,40 -7,40 -8,-55 c -7,-49 -28,-150 -42,-205 -5,-20 -5,-20 7,0 7,10 18,37 26,60 l 13,40 -5,-40 c -4,-22 -8,-49 -11,-60 -2,-11 9,5 26,35 17,30 29,47 26,38 -4,-10 -8,-26 -12,-35 -3,-10 17,25 44,77 60,116 69,140 49,140 -8,0 -23,-23 -34,-52 l -20,-53 -8,55 c -9,67 -19,90 -29,65 z m -19,-142 c -3,-10 -5,-4 -5,12 0,17 2,24 5,18 2,-7 2,-21 0,-30 z m 43,-20 c -11,-17 -11,-17 -6,0 3,10 6,24 7,30 0,9 2,9 5,0 3,-7 0,-20 -6,-30 z"
         id="path47"
         inkscape:label="M-Back-Left-Forearm" />
    </g>
    <g
       id="M-Glute"
       style="display:inline">
      <path
         d="m 2123,1659 c -99,-49 -118,-92 -78,-174 32,-67 59,-86 121,-88 l 47,-2 14,80 c 17,94 12,158 -12,185 -23,25 -40,25 -92,-1 z"
         id="path57"
         inkscape:label="M-Back-Glute" />
      <path
         d="m 2267,1647 c -10,-19 -17,-52 -16,-74 1,-49 22,-169 31,-178 4,-4 28,-4 54,0 56,8 94,43 120,110 14,37 15,50 4,74 -14,36 -94,90 -143,98 -31,5 -35,2 -50,-30 z"
         id="path58"
         inkscape:label="M-Back-Glute" />
    </g>
    <g
       id="M-Lat"
       style="display:inline">
      <path
         d="m 2116,2149 c -15,-18 -26,-21 -67,-17 -27,3 -49,4 -49,2 0,-2 7,-21 15,-41 8,-21 23,-87 35,-146 17,-93 41,-156 60,-157 7,0 90,217 90,237 0,15 -56,143 -63,143 -1,0 -11,-10 -21,-21 z"
         id="path24"
         inkscape:label="M-Back-Left-Lat" />
      <path
         d="m 2321,2108 c -17,-36 -31,-72 -31,-81 0,-20 83,-237 90,-237 19,1 44,66 61,160 11,60 26,125 34,145 8,19 15,36 15,38 0,2 -22,2 -49,-1 -40,-4 -51,-1 -69,18 l -21,23 z"
         id="path25"
         inkscape:label="M-Back-Right-Lat" />
    </g>
    <g
       id="M-Tricep"
       style="display:inline">
      <path
         d="m 1933,2176 c -24,-26 -33,-47 -33,-71 0,-19 3,-35 8,-35 4,1 22,14 41,30 33,28 34,31 25,71 l -9,42 z"
         id="path20"
         inkscape:label="M-Back-Left-Tricep" />
      <path
         d="m 2515,2171 c -7,-40 -5,-45 26,-72 19,-15 37,-28 42,-29 4,0 7,16 7,35 0,26 -9,45 -34,72 l -34,37 z"
         id="path21"
         inkscape:label="M-Back-Right-Tricep" />
      <path
         d="m 1876,2064 c -13,-33 -18,-121 -8,-128 15,-9 44,72 37,105 -8,35 -21,45 -29,23 z"
         id="path32"
         inkscape:label="M-Back-Left-Tricep" />
      <path
         d="m 1948,2083 c -22,-24 -48,-118 -48,-172 0,-21 20,-11 32,17 6,15 20,46 30,69 23,49 34,113 21,113 -5,0 -21,-12 -35,-27 z"
         id="path30"
         inkscape:label="M-Back-Left-Tricep"
         style="display:inline" />
      <path
         d="m 2503,2074 c 3,-20 15,-54 25,-77 10,-23 24,-54 30,-69 16,-40 36,-36 28,5 -3,17 -8,52 -12,77 -6,43 -45,100 -67,100 -5,0 -7,-16 -4,-36 z"
         id="path31"
         inkscape:label="M-Back-Right-Tricep"
         style="display:inline" />
      <path
         d="m 2591,2057 c -14,-37 -14,-39 5,-87 22,-56 38,-41 29,29 -9,76 -20,95 -34,58 z"
         id="path33"
         inkscape:label="M-Back-Right-Tricep"
         style="display:inline" />
      <path
         d="m 427,1978 c -6,-15 -8,-30 -4,-34 12,-12 34,15 62,78 31,68 42,137 28,163 z"
         id="path106"
         inkscape:label="M-Front-Left-Tricep"
         style="display:inline"
         sodipodi:nodetypes="csccc" />
      <path
         d="m 995,2177 c -10,-39 -1,-86 31,-157 26,-59 49,-88 60,-77 4,3 1,20 -5,38 l -55,144 c -9,33 -19,65 -20,70 -2,6 -7,-3 -11,-18 z m 65,-147 c 32.0625,-91.0178 -59.2727,168.261 0,0 z"
         id="path107"
         inkscape:label="M-Front-Right-Tricep"
         style="display:inline"
         sodipodi:nodetypes="cccccccss" />
    </g>
    <g
       id="M-Bicep"
       style="display:inline">
      <path
         d="m 455,2103 c 0,60 -16,68 -48,25 -28,-37 -37,-148 -13,-148 9,0 26,15 37,33 z"
         id="path22"
         inkscape:label="M-Front-Left-Bicep"
         style="display:inline"
         sodipodi:nodetypes="ccscc" />
      <path
         d="m 1088,1997 c 35,-32 45,-22 40,41 -4,60 -39,127 -62,119 z"
         id="path23"
         inkscape:label="M-Front-Right-Bicep"
         style="display:inline"
         sodipodi:nodetypes="cccc" />
    </g>
    <g
       id="M-Adductor"
       style="display:inline">
      <path
         d="m 620,1563 c 21,-48 43,-107 50,-130 14,-47 24,-53 39,-25 6,12 3,34 -10,72 -19,55 -86,161 -106,167 -6,2 6,-36 27,-84 z"
         id="path59"
         inkscape:label="M-Front-Left-Adductor" />
      <path
         d="m 707,1386 c -13,-20 -15,-34 -8,-71 5,-25 11,-48 14,-51 3,-3 8,27 12,66 4,39 5,73 2,76 -2,3 -12,-6 -20,-20 z"
         id="path85"
         inkscape:label="M-Front-Left-Adductor"
         style="display:inline" />
      <path
         d="M 879,1608 C 805,1506 773,1406 787,1317 l 9,-62 12,54 c 11,46 10,56 -3,71 -8,9 -15,21 -15,26 0,5 4,3 9,-5 14,-22 27,-6 56,76 15,43 38,99 51,126 30,58 15,61 -27,5 z"
         id="path60"
         inkscape:label="M-Front-Right-Adductor"
         style="display:inline" />
      <path
         d="m 2178,1373 c -21,-5 -22,-8 -6,-36 7,-12 15,-42 18,-67 l 6,-45 13,58 c 18,82 12,101 -31,90 z"
         id="path86"
         inkscape:label="M-Back-Left-Adductor"
         style="display:inline" />
      <path
         d="m 2275,1370 c -8,-13 2,-91 15,-124 7,-17 9,-14 9,17 1,21 8,52 17,68 8,17 14,32 12,34 -12,11 -47,14 -53,5 z"
         id="path87"
         inkscape:label="M-Back-Right-Adductor"
         style="display:inline" />
    </g>
    <g
       id="M-Quad"
       style="display:inline">
      <path
         d="m 525,1554 c -14,-43 -16,-77 -12,-142 3,-51 1,-79 -4,-71 -12,19 -11,-26 1,-111 14,-97 70,-229 70,-162 0,9 -11,52 -25,95 -14,42 -27,96 -30,120 -3,24 5,4 19,-47 30,-109 55,-176 66,-176 10,0 20,25 22,58 0,15 4,5 7,-22 9,-71 27,-69 35,3 4,33 11,63 16,66 14,9 12,79 -5,157 -13,61 -94,282 -101,275 -2,-1 17,-81 41,-177 46,-180 53,-218 35,-190 -6,10 -10,0 -13,-35 -2,-36 -4,-27 -5,31 -1,49 -12,119 -27,175 -34,131 -59,209 -66,209 -4,0 -14,-25 -24,-56 z m 152,-376 c -3,-7 -5,-2 -5,12 0,14 2,19 5,13 2,-7 2,-19 0,-25 z"
         id="path61"
         style="display:inline"
         inkscape:label="M-Front-Left-Quad" />
      <path
         d="m 915,1482 c -32,-104 -40,-147 -44,-237 -5,-97 -6,-103 -11,-50 l -5,60 -13,-55 c -14,-62 -7,-163 12,-157 6,2 14,23 17,48 3,24 7,33 8,19 1,-26 17,-58 24,-50 2,3 9,14 15,25 11,19 11,18 12,-7 0,-44 13,-33 38,31 20,52 41,170 41,226 0,31 -15,-1 -23,-50 -9,-52 -46,-178 -51,-173 -2,2 11,64 30,138 20,79 35,160 35,196 0,56 -23,148 -39,158 -4,3 -24,-52 -46,-122 z"
         id="path62"
         inkscape:label="M-Front-Right-Quad"
         style="display:inline" />
      <path
         d="m 893,1528 c -50,-119 -74,-208 -80,-293 -7,-102 8,-90 32,25 10,47 33,141 51,210 18,68 31,126 30,128 -2,1 -17,-30 -33,-70 z"
         id="path63"
         inkscape:label="M-Front-Right-Quad"
         style="display:inline" />
    </g>
    <g
       id="M-Calf"
       style="display:inline">
      <path
         d="m 2043,933 c -26,-44 -28,-56 -28,-153 0,-123 8,-160 34,-160 16,0 18,15 24,177 4,97 5,178 3,181 -2,2 -17,-18 -33,-45 z"
         id="path93"
         inkscape:label="M-Back-Left-Calf"
         style="display:inline" />
      <path
         d="m 2413,873 c 4,-58 7,-139 7,-180 0,-66 2,-73 20,-73 27,0 35,35 35,160 0,97 -2,109 -28,153 -15,26 -31,47 -34,47 -3,0 -3,-48 0,-107 z"
         id="path94"
         inkscape:label="M-Back-Right-Calf"
         style="display:inline" />
      <path
         d="m 631,831 c -22,-42 -23,-51 -16,-159 4,-63 10,-110 15,-105 27,30 45,171 32,253 l -8,55 z"
         id="path97"
         inkscape:label="M-Front-Left-Calf"
         style="display:inline" />
      <path
         d="m 845,804 c -8,-71 -3,-122 18,-199 17,-62 23,-47 32,86 6,86 5,100 -14,137 -12,23 -23,42 -25,42 -3,0 -8,-30 -11,-66 z"
         id="path98"
         inkscape:label="M-Front-Right-Calf"
         style="display:inline" />
      <path
         d="m 2359,899 c -12,-31 -23,-87 -26,-134 -4,-68 -1,-85 16,-112 42,-66 48,-48 48,141 -1,96 -4,173 -9,170 z"
         id="path111"
         inkscape:label="M-Back-right-Calf-2"
         sodipodi:nodetypes="cccccc"
         style="display:inline" />
      <path
         d="m 2101,968 c -5,8 -8,-65 -8,-167 0,-147 2,-181 14,-181 7,0 23,15 34,33 17,27 20,44 16,112 -3,46 -14,103 -26,134 -11,30 -17,59 -14,64 z"
         id="path110"
         inkscape:label="M-Back-Left-Calf-2"
         style="display:inline"
         sodipodi:nodetypes="cssccccc" />
    </g>
    <g
       id="M-Ham"
       style="display:inline">
      <path
         d="m 2055,1408 c -2,-7 -6,-94 -9,-193 -3,-99 -8,-200 -12,-225 -4,-33 -2,-41 5,-30 20,28 54,144 61,205 6,47 8,31 8,-75 1,-77 -2,-129 -7,-122 11.2962,-18.65084 -0.3123,-13.23856 16,-5 12,19 46,241 47,298 0,35 -6,63 -17,78 l -16,24 -5,-24 c -3,-13 -7,-42 -9,-64 -2,-27 -4,-19 -5,23 -2,79 -42,155 -57,110 z"
         id="path82"
         style="display:inline"
         sodipodi:nodetypes="csccccccccccccc"
         inkscape:label="M-Back-Left-Ham" />
      <path
         d="m 2397,1391 c -10,-18 -18,-53 -19,-93 -1,-42 -3,-50 -5,-23 -2,22 -6,51 -9,64 -5,24 -5,24 -19,4 -24,-34 -28,-96 -12,-169 9,-38 19,-98 23,-134 3,-36 14.942,-68.18997 15,-76 0.2622,-35.3143 24.6241,-0.78722 17,0 -4,-3 -7,52 -7,123 1,100 3,116 9,73 7,-58 43,-175 61,-200 8,-11 9,0 4,40 -4,30 -10,136 -14,234 -4,109 -10,181 -16,183 -6,2 -18,-10 -28,-26 z"
         id="path83"
         style="display:inline"
         sodipodi:nodetypes="cccccccsccccccsc"
         inkscape:label="M-Back-Right-Ham" />
    </g>
    <g
       id="M-Abductor"
       style="display:inline">
      <path
         d="m 1990,1432 c 0,-66 21,-283 30,-304 13,-33 13,237 0,284 -13,47 -30,58 -30,20 z"
         id="path74"
         inkscape:label="M-Back-Left-Abductor" />
      <path
         d="m 2480,1441 c -6,-12 -14,-49 -18,-84 -9,-77 0,-263 10,-227 10,33 32,320 25,327 -3,2 -10,-5 -17,-16 z"
         id="path75"
         inkscape:label="M-Back-Right-Abductor" />
      <path
         d="m 2067,1702 c -18,-20 -40,-72 -33,-79 3,-3 20,6 38,20 18,14 49,32 68,40 l 35,15 -28,11 c -40,16 -61,14 -80,-7 z"
         id="path55"
         inkscape:label="M-Back-Glute/Abd"
         style="display:inline" />
      <path
         d="m 2340,1708 -25,-10 35,-15 c 19,-8 50,-26 68,-40 39,-29 47,-26 32,13 -23,61 -55,75 -110,52 z"
         id="path56"
         inkscape:label="M-Back-Glute/Abd"
         style="display:inline" />
    </g>
    <path
       d="m 535,2103 c -4,-16 0,-34 11,-50 15,-24 17,-24 32,-8 11,11 13,19 6,22 -6,2 -20,11 -30,19 -18,14 -18,15 3,5 48,-24 60,-6 14,21 -29,16 -29,16 -36,-9 z"
       id="path26" />
    <path
       d="m 937,2112 c -44,-27 -31,-44 16,-21 21,10 21,9 3,-5 -10,-8 -24,-17 -30,-19 -7,-3 -7,-9 3,-20 11,-14 17,-15 30,-5 13,10 14,10 4,-2 -7,-8 -13,-23 -13,-34 0,-13 -3,-17 -8,-9 -11,17 -55,-19 -51,-41 4,-14 8,-14 36,6 18,13 36,32 41,44 9,18 9,111 0,119 -2,2 -16,-4 -31,-13 z"
       id="path27"
       inkscape:label="path27" />
    <path
       d="m 592,2047 -23,-25 23,-16 c 22,-16 23,-16 26,4 2,11 2,29 0,41 -3,20 -4,20 -26,-4 z"
       id="path34" />
    <path
       d="m 890,2025 c 0,-33 2,-35 20,-25 23,12 26,30 8,48 -20,20 -28,14 -28,-23 z"
       id="path35" />
    <path
       d="m 533,2030 c 4,-14 7,-28 7,-32 0,-5 5,-8 10,-8 16,0 11,36 -7,51 -15,13 -16,11 -10,-11 z"
       id="path36" />
    <path
       d="m 566,1994 c -12,-31 -5,-68 17,-93 l 22,-26 -22,19 -23,19 v -30 c 0,-26 34,-73 53,-73 3,0 6,26 6,58 -1,49 -5,60 -27,80 l -27,23 28,-17 c 26,-16 27,-16 27,4 0,11 -11,27 -24,35 -22,15 -25,15 -30,1 z"
       id="path37" />
    <path
       d="m 918,1947 c -23,-19 -26,-30 -27,-80 0,-60 3,-62 42,-29 9,8 17,28 17,45 0,27 -2,28 -17,16 -16,-12 -16,-11 0,8 10,12 17,30 15,41 -3,20 -3,20 -30,-1 z"
       id="path42" />
    <path
       d="m 1850,1876 c 0,-53 16,-68 30,-30 8,20 7,32 -5,50 -8,13 -18,24 -20,24 -3,0 -5,-20 -5,-44 z"
       id="path45" />
    <path
       d="m 2616,1897 c -16,-23 -17,-32 -7,-54 17,-37 33,-16 29,38 l -3,44 z"
       id="path46" />
    <path
       d="m 556,1802 c -11,-71 -7,-86 34,-127 22,-21 41,-37 43,-34 3,2 1,36 -2,75 -5,64 -9,74 -37,97 l -31,27 z"
       id="path49" />
    <path
       d="m 914,1812 c -29,-24 -32,-34 -37,-99 -3,-40 -3,-73 2,-73 4,0 24,17 44,38 l 38,39 -8,61 -8,61 z"
       id="path50" />
    <path
       d="m 2045,1797 c -4,-13 -5,-40 -3,-59 l 3,-36 35,29 c 34,29 34,30 18,57 -22,36 -46,40 -53,9 z"
       id="path51" />
    <path
       d="m 2396,1795 c -22,-33 -21,-36 19,-68 l 35,-28 v 45 c 0,78 -22,99 -54,51 z"
       id="path52" />
    <path
       d="m 208,1541 c -14,-11 -27,-18 -30,-16 -2,2 -19,-11 -37,-31 -19,-19 -31,-38 -27,-41 8,-8 46,27 57,52 8,20 8,20 8,-1 1,-25 37,-60 71,-69 23,-5 25,-10 22,-46 -2,-21 0,-39 6,-39 10,0 22,78 25,160 2,45 2,45 -34,48 -24,2 -43,-4 -61,-17 z"
       id="path64" />
    <path
       d="m 1204,1545 c -4,-8 -3,-34 0,-57 19,-130 22,-143 30,-125 5,9 6,28 4,41 -4,19 0,26 17,30 30,8 75,45 75,62 0,8 -11,26 -25,39 -28,29 -92,35 -101,10 z"
       id="path65" />
    <path
       d="m 1695,1536 c -14,-14 -25,-32 -25,-40 0,-17 45,-54 75,-62 17,-4 21,-11 17,-30 -2,-13 -1,-32 4,-41 9,-21 24,58 27,142 l 2,50 -37,3 c -29,3 -43,-2 -63,-22 z"
       id="path66" />
    <path
       d="m 2694,1545 c -4,-8 -3,-34 0,-57 19,-130 22,-143 30,-125 5,9 6,28 4,41 -4,19 0,26 17,30 30,8 75,45 75,62 0,8 -11,26 -25,39 -28,29 -92,35 -101,10 z"
       id="path67" />
    <path
       d="m 1341,1501 c 6,-17 20,-36 31,-42 34,-18 32,-2 -6,37 l -36,37 z"
       id="path68" />
    <path
       d="m 1632,1494 c -36,-38 -37,-54 -3,-32 16,9 49,69 38,68 -1,0 -17,-16 -35,-36 z"
       id="path69" />
    <path
       d="m 2831,1501 c 6,-17 20,-36 31,-42 34,-18 32,-2 -6,37 l -36,37 z"
       id="path70" />
    <path
       d="m 156,1414 c -37,-66 -32,-75 10,-20 24,32 33,51 26,58 -6,6 -18,-7 -36,-38 z"
       id="path71" />
    <path
       d="m 1315,1451 c -3,-6 9,-31 27,-56 40,-57 48,-45 12,18 -27,50 -30,52 -39,38 z"
       id="path72" />
    <path
       d="m 1646,1414 c -36,-64 -28,-76 12,-18 21,29 30,50 24,56 -6,6 -19,-8 -36,-38 z"
       id="path73" />
    <path
       d="m 2805,1451 c -3,-6 9,-31 27,-56 40,-57 48,-45 12,18 -27,50 -30,52 -39,38 z"
       id="path76" />
    <path
       d="m 185,1379 c -23,-69 -11,-74 20,-8 l 25,54 -5,-60 c -4,-42 -3,-55 4,-45 18,27 24,92 10,101 -27,17 -38,8 -54,-42 z"
       id="path77" />
    <path
       d="m 1297,1393 c 23,-56 34,-75 40,-69 9,9 -30,106 -43,106 -10,0 -9,-9 3,-37 z"
       id="path78" />
    <path
       d="m 1676,1380 c -25,-70 -12,-75 19,-9 l 26,54 -6,-58 c -6,-69 9,-69 20,-1 5,34 3,49 -7,55 -25,16 -34,9 -52,-41 z"
       id="path79" />
    <path
       d="m 2787,1393 c 23,-56 34,-75 40,-69 9,9 -30,106 -43,106 -10,0 -9,-9 3,-37 z"
       id="path80" />
    <path
       d="m 1265,1375 c 3,-27 11,-54 17,-60 6,-7 7,7 3,40 -4,28 -12,55 -17,60 -7,7 -8,-7 -3,-40 z"
       id="path81"
       inkscape:label="path81" />
    <path
       d="m 2755,1375 c 3,-27 11,-54 17,-60 6,-7 7,7 3,40 -4,28 -12,55 -17,60 -7,7 -8,-7 -3,-40 z"
       id="path84"
       style="display:inline" />
    <path
       d="m 2306,1173 c 3,-15 10,-44 15,-63 5,-19 10,-57 11,-85 1,-48 2,-48 6,-10 5,47 -15,172 -29,181 -6,3 -7,-6 -3,-23 z"
       id="path88" />
    <path
       d="m 2162,1133 c -14,-72 -23,-208 -12,-173 4,14 9,45 9,70 1,25 8,71 15,103 8,31 11,57 6,57 -4,0 -12,-26 -18,-57 z"
       id="path89" />
    <path
       d="m 562,1017 c -14,-16 2,-84 25,-107 13,-13 16,-12 34,9 23,28 24,21 3,-21 -22,-42 -35,-88 -25,-88 13,0 62,116 67,158 l 4,37 -14,-30 -15,-30 -1,36 c 0,29 -5,38 -22,43 -34,9 -44,7 -56,-7 z"
       id="path90" />
    <path
       d="m 888,1023 c -13,-3 -18,-15 -19,-46 l -1,-42 -11,35 c -9,31 -11,32 -15,12 -4,-24 30,-119 55,-157 13,-19 13,-19 13,0 0,11 -9,40 -21,64 l -20,45 22,-20 c 20,-18 21,-18 35,0 17,24 28,80 20,101 -5,15 -24,17 -58,8 z"
       id="path91" />
    <path
       d="m 536,938 c -20,-125 -18,-247 4,-350 13,-56 23,-129 24,-160 1,-53 4,-60 31,-78 17,-11 33,-20 38,-20 4,0 7,20 7,44 0,50 -33,104 -54,87 -8,-7 -10,0 -8,27 2,21 -3,65 -12,99 -24,92 -18,99 8,10 13,-42 26,-80 30,-84 15,-15 3,136 -23,290 -16,93 -32,171 -34,173 -3,3 -8,-14 -11,-38 z m 7,-163 c 3,-67 2,-87 -3,-60 -9,39 -14,172 -6,164 2,-2 6,-49 9,-104 z"
       id="path92" />
    <path
       d="M 957,960 C 941,920 899,624 902,573 l 3,-58 22,60 c 13,33 19,44 15,25 -4,-19 -7,-61 -7,-92 0,-32 -4,-53 -9,-48 -5,5 -15,6 -22,3 -17,-6 -18,9 -2,25 9,9 9,12 0,12 -6,0 -16,-9 -22,-19 -13,-26 -13,-34 2,-25 8,5 9,2 3,-12 -12,-27 -19,-114 -8,-114 4,0 21,9 37,19 28,18 30,25 32,89 2,38 10,98 20,133 12,43 18,104 18,189 1,120 -14,232 -27,200 z m 14,-226 -10,-49 4,55 c 3,30 6,75 7,100 l 2,45 3,-51 c 2,-28 -1,-73 -6,-100 z m -14,-86 c -3,-7 -5,-2 -5,12 0,14 2,19 5,13 2,-7 2,-19 0,-25 z"
       id="path95"
       style="display:inline" />
    <path
       d="m 2341,954 c 0,-11 3,-14 6,-6 3,7 2,16 -1,19 -3,4 -6,-2 -5,-13 z"
       id="path96" />
    <path
       d="m 2034,568 c 9,-29 36,-208 35,-228 -1,-8 -5,-4 -10,10 -6,19 -8,10 -6,-33 2,-56 2,-57 -25,-57 -29,0 -38,-14 -14,-23 7,-3 34,-9 60,-12 38,-6 46,-5 46,8 0,9 -8,21 -17,26 -17,10 -17,10 0,11 13,0 17,9 16,43 0,35 -2,38 -9,20 -13,-31 -44,-31 -34,0 8,25 6,199 -3,235 -3,14 -13,22 -25,22 -16,0 -19,-4 -14,-22 z"
       id="path99" />
    <path
       d="m 2097,584 c -9,-9 -7,-158 2,-199 5,-24 9,-11 20,60 7,50 11,101 10,114 -4,25 -20,37 -32,25 z"
       id="path100" />
    <path
       d="m 2367,584 c -10,-11 -7,-80 7,-159 l 13,-70 7,55 c 14,108 0,200 -27,174 z"
       id="path101" />
    <path
       d="m 2416,573 c -9,-29 -10,-216 -2,-240 9,-28 -18,-32 -33,-5 -8,14 -10,10 -11,-20 0,-30 4,-38 18,-38 16,-1 16,-1 0,-14 -34,-25 -22,-39 28,-31 26,3 53,9 60,12 24,9 15,23 -13,23 -28,0 -28,1 -26,57 2,43 0,52 -6,33 -8,-21 -9,-22 -10,-5 -1,23 25,189 35,223 5,18 2,22 -14,22 -11,0 -23,-8 -26,-17 z"
       id="path102"
       inkscape:label="path102" />
    <path
       d="m 615,476 c 21,-32 27,-33 16,-4 -4,12 -14,24 -20,26 -8,3 -7,-5 4,-22 z"
       id="path103" />
    <path
       d="m 541,299 c -36,-44 -33,-55 15,-65 26,-5 31,-2 41,23 l 12,28 -5,-32 c -7,-39 12,-45 26,-9 10,26 3,69 -11,61 -4,-3 -13,4 -19,15 -15,28 -22,26 -59,-21 z"
       id="path104" />
    <path
       d="m 913,333 c -7,-2 -13,-11 -13,-19 0,-9 -4,-12 -10,-9 -15,9 -23,-41 -10,-64 15,-28 31,-17 25,17 l -5,27 12,-28 c 11,-25 16,-28 42,-23 46,10 49,19 15,64 -31,43 -34,44 -56,35 z"
       id="path105" />
    <path
       d="m 2364,2198 c -4,-12 0,-18 10,-18 9,0 15,-6 14,-12 -2,-9 12,-14 38,-16 35,-3 45,1 63,24 17,22 30,74 17,74 -2,0 -20,-16 -40,-35 -21,-19 -45,-35 -53,-35 -9,0 -2,9 17,23 19,12 42,36 53,54 l 18,32 -41,21 c -23,12 -49,19 -57,16 z"
       id="path108"
       style="display:inline"
       sodipodi:nodetypes="cscccscscccccc" />
    <path
       d="m 2087,2326 c -8,3 -34,-4 -57,-16 l -41,-21 18,-32 c 11,-18 34,-42 53,-54 19,-14 26,-23 17,-23 -8,0 -32,16 -53,35 -20,19 -38,35 -40,35 -13,0 0,-52 17,-74 18,-23 28,-27 63,-24 26,2 40,7 39,16 -2,6 4,12 13,12 10,0 14,6 10,18 -17,58 -27,105 -23,108 z"
       id="path109"
       style="display:inline"
       sodipodi:nodetypes="cccccscscccsccc" />
  </g>
</svg>
